<?xml version="1.0" encoding="iso-8859-1"?>
<!-- Uploaded to: SVG Repo, www.svgrepo.com, Generator: SVG Repo Mixer Tools -->
<svg height="800px" width="800px" version="1.1" id="Layer_1" xmlns="http://www.w3.org/2000/svg" xmlns:xlink="http://www.w3.org/1999/xlink" 
	 viewBox="0 0 512 512" xml:space="preserve">
<path style="fill:#736056;" d="M256,512C114.843,512,0,397.157,0,256S114.843,0,256,0s256,114.843,256,256S397.157,512,256,512z"/>
<path style="fill:#665247;" d="M512,256C512,114.843,397.157,0,256,0v512C397.157,512,512,397.157,512,256z"/>
<path style="fill:#E6563A;" d="M256,378.435c-67.511,0-122.435-54.924-122.435-122.435S188.489,133.565,256,133.565
	S378.435,188.489,378.435,256S323.511,378.435,256,378.435z"/>
<path style="fill:#D9472B;" d="M378.435,256c0-67.511-54.924-122.435-122.435-122.435v244.87
	C323.511,378.435,378.435,323.511,378.435,256z"/>
<path style="fill:#736056;" d="M256,278.261c-12.277,0-22.261-9.984-22.261-22.261s9.984-22.261,22.261-22.261
	s22.261,9.984,22.261,22.261S268.277,278.261,256,278.261z"/>
<path style="fill:#665247;" d="M278.261,256c0-12.277-9.984-22.261-22.261-22.261v44.522
	C268.277,278.261,278.261,268.277,278.261,256z"/>
<path style="fill:#8C7468;" d="M428.522,272.696c-9.223,0-16.696-7.473-16.696-16.696c0-41.549-16.228-80.663-45.696-110.13
	c-29.468-29.467-68.581-45.696-110.13-45.696c-9.223,0-16.696-7.473-16.696-16.696S246.777,66.783,256,66.783
	c50.468,0,97.968,19.701,133.739,55.479c35.778,35.771,55.479,83.271,55.479,133.739
	C445.217,265.223,437.744,272.696,428.522,272.696z"/>
<path style="fill:#806A5F;" d="M366.13,145.87c29.468,29.467,45.696,68.581,45.696,110.13c0,9.223,7.473,16.696,16.696,16.696
	s16.696-7.473,16.696-16.696c0-50.468-19.701-97.968-55.479-133.739C353.968,86.483,306.468,66.783,256,66.783v33.391
	C297.549,100.174,336.663,116.402,366.13,145.87z"/>
<path style="fill:#8C7468;" d="M256,445.217c-50.468,0-97.968-19.701-133.739-55.479C86.483,353.968,66.783,306.468,66.783,256
	c0-9.223,7.473-16.696,16.696-16.696s16.696,7.473,16.696,16.696c0,41.549,16.228,80.663,45.696,110.13
	c29.468,29.467,68.581,45.696,110.13,45.696c9.223,0,16.696,7.473,16.696,16.696S265.223,445.217,256,445.217z"/>
<path style="fill:#806A5F;" d="M272.696,428.522c0-9.223-7.473-16.696-16.696-16.696v33.391
	C265.223,445.217,272.696,437.744,272.696,428.522z"/>
</svg>